# Created by Kenney (www.kenney.nl)

mtllib player2.mtl

g mergedBlocks

v 0.5000014 -7.152557E-07 0.4999999
v -0.5000015 -5.960464E-07 0.4999999
v 0.5000015 1 0.5000001
v -0.5000014 1 0.5000001
v -0.5000015 -5.960464E-07 0.2999992
v 0.5000014 -7.152557E-07 0.2999992
v 0.5000015 1 0.2999994
v -0.5000014 1 0.2999994
v -0.5000014 1.000001 -0.5000035
v -0.5000015 -4.768372E-07 -0.5000037
v 0.5000014 -5.960464E-07 -0.5000037
v 0.5000015 1 -0.5000035

vn 0 -1.192097E-07 1.000004
vn -1.192094E-07 -1.000001 -1.192094E-07
vn 1.000003 -1.192096E-07 0
vn 1.192094E-07 1.000001 1.192094E-07
vn -1.000003 1.192096E-07 0
vn 0 1.192097E-07 -1.000004

vt 0.5000014 -7.152559E-07
vt -0.5000015 -5.960463E-07
vt 0.5000015 1
vt -0.5000014 1
vt 0.5000015 -0.2999992
vt 0.5000015 -0.4999999
vt -0.5000014 -0.2999992
vt -0.5000014 -0.4999999
vt -0.4999999 -7.152559E-07
vt -0.5000001 1
vt -0.2999992 -6.91414E-07
vt -0.2999994 1
vt 0.5000014 0.5000001
vt 0.5000014 0.2999994
vt -0.5000015 0.5000001
vt -0.5000015 0.2999994
vt 0.5000001 1
vt 0.4999999 -5.960463E-07
vt 0.2999994 1
vt 0.2999992 -5.722043E-07
vt -0.5000035 1.000001
vt -0.5000036 -4.768366E-07
vt 0.5000015 -4.768366E-07
vt -0.5000014 -5.960462E-07
vt 0.5000014 1.000001
vt -0.5000015 1
vt 0.5000015 0.5000036
vt -0.5000014 0.5000036
vt 0.5000036 -5.960462E-07
vt 0.5000035 1
vt 0.5000014 -0.5000035
vt -0.5000015 -0.5000035

usemtl bricksDark(Clone)

f 3/3/1 2/2/1 1/1/1
f 2/2/1 3/3/1 4/4/1
f 6/7/2 2/6/2 5/5/2
f 2/6/2 6/7/2 1/8/2
f 6/11/3 3/10/3 1/9/3
f 3/10/3 6/11/3 7/12/3
f 3/15/4 8/14/4 4/13/4
f 8/14/4 3/15/4 7/16/4
f 8/19/5 2/18/5 4/17/5
f 2/18/5 8/19/5 5/20/5

usemtl bricks(Clone)

f 9/21/5 5/20/5 8/19/5
f 5/20/5 9/21/5 10/22/5
f 9/25/6 11/24/6 10/23/6
f 11/24/6 9/25/6 12/26/6
f 11/28/2 5/5/2 10/27/2
f 5/5/2 11/28/2 6/7/2
f 11/29/3 7/12/3 6/11/3
f 7/12/3 11/29/3 12/30/3
f 7/16/4 9/31/4 8/14/4
f 9/31/4 7/16/4 12/32/4

