# Created by Kenney (www.kenney.nl)

mtllib player-jelly.mtl

g mergedBlocks

v 0.325 0.175 0.55
v -0.325 0.175 0.55
v 0.325 0.825 0.55
v -0.325 0.825 0.55
v -0.55 0.175 -0.325
v -0.55 0.825 -0.325
v -0.55 0.175 0.325
v -0.55 0.825 0.325
v 0.325 -0.04999999 0.325
v 0.325 -0.04999999 -0.325
v -0.325 -0.04999999 0.325
v -0.325 -0.04999999 -0.325
v 0.325 1.05 -0.325
v 0.325 1.05 0.325
v -0.325 1.05 -0.325
v -0.325 1.05 0.325
v -0.325 0.175 -0.55
v 0.325 0.175 -0.55
v -0.325 0.825 -0.55
v 0.325 0.825 -0.55
v 0.55 0.825 -0.325
v 0.55 0.175 -0.325
v 0.55 0.825 0.325
v 0.55 0.175 0.325
v 0.5 1.490298E-08 0.5
v 0.5 1 0.5
v -0.5 1.490298E-08 0.5
v -0.5 1 0.5
v 0.5 1 -0.5
v 0.5 0 -0.5
v -0.5 0 -0.5
v -0.5 1 -0.5

vn 0.1046864 -0.1046864 0.9889801
vn -0.1046864 -0.1046864 0.9889801
vn 0.1046864 0.1046864 0.9889801
vn -0.1046864 0.1046864 0.9889801
vn -0.9889801 -0.1046864 -0.1046864
vn -0.9889801 0.1046864 -0.1046864
vn -0.9889801 -0.1046864 0.1046864
vn -0.9889801 0.1046864 0.1046864
vn 0.1046864 -0.9889801 0.1046864
vn 0.1046864 -0.9889801 -0.1046864
vn -0.1046864 -0.9889801 0.1046864
vn -0.1046864 -0.9889801 -0.1046864
vn 0.1046864 0.9889801 -0.1046864
vn 0.1046864 0.9889801 0.1046864
vn -0.1046864 0.9889801 -0.1046864
vn -0.1046864 0.9889801 0.1046864
vn -0.1046864 -0.1046864 -0.9889801
vn 0.1046864 -0.1046864 -0.9889801
vn -0.1046864 0.1046864 -0.9889801
vn 0.1046864 0.1046864 -0.9889801
vn 0.9889801 0.1046864 -0.1046864
vn 0.9889801 -0.1046864 -0.1046864
vn 0.9889801 0.1046864 0.1046864
vn 0.9889801 -0.1046864 0.1046864
vn 0.140028 -0.140028 0.9801961
vn 0.140028 0.140028 0.9801961
vn -0.140028 -0.140028 0.9801961
vn -0.140028 0.140028 0.9801961
vn 0.9801961 0.140028 -0.140028
vn 0.9801961 -0.140028 -0.140028
vn 0.9801961 -0.140028 0.140028
vn 0.9801961 0.140028 0.140028
vn -0.140028 -0.140028 -0.9801961
vn -0.140028 0.140028 -0.9801961
vn 0.140028 -0.140028 -0.9801961
vn 0.140028 0.140028 -0.9801961
vn -0.9801961 0.140028 -0.140028
vn -0.9801961 0.140028 0.140028
vn -0.9801961 -0.140028 -0.140028
vn -0.9801961 -0.140028 0.140028
vn -0.140028 0.9801961 -0.140028
vn -0.140028 0.9801961 0.140028
vn 0.140028 0.9801961 -0.140028
vn 0.140028 0.9801961 0.140028
vn 0.140028 -0.9801961 -0.140028
vn 0.140028 -0.9801961 0.140028
vn -0.140028 -0.9801961 0.140028
vn -0.140028 -0.9801961 -0.140028

vt 0.325 0.175
vt -0.325 0.175
vt 0.325 0.825
vt -0.325 0.825
vt -0.325 0.175
vt 0.325 0.175
vt -0.325 -0.325
vt -0.325 0.325
vt 0.325 -0.325
vt 0.325 0.325
vt 0.5 1.490298E-08
vt 0.5 1
vt -0.5 1.490298E-08
vt -0.5 1
vt 0.5 0
vt -0.5 0
vt 0.5 -0.5
vt 0.5 0.5
vt -0.5 -0.5
vt -0.5 0.5

usemtl foliage(Clone)

f 3/3/3 2/2/2 1/1/1
f 2/2/2 3/3/3 4/4/4
f 7/6/7 6/4/6 5/5/5
f 6/4/6 7/6/7 8/3/8
f 11/9/11 10/8/10 9/7/9
f 10/8/10 11/9/11 12/10/12
f 15/9/15 14/8/14 13/7/13
f 14/8/14 15/9/15 16/10/16
f 19/3/19 18/5/18 17/6/17
f 18/5/18 19/3/19 20/4/20
f 23/4/23 22/1/22 21/3/21
f 22/1/22 23/4/23 24/2/24
f 26/12/26 1/1/1 25/11/25
f 1/1/1 26/12/26 3/3/3
f 1/1/1 27/13/27 25/11/25
f 27/13/27 1/1/1 2/2/2
f 2/2/2 28/14/28 27/13/27
f 28/14/28 2/2/2 4/4/4
f 26/12/26 4/4/4 3/3/3
f 4/4/4 26/12/26 28/14/28
f 21/3/21 30/15/30 29/12/29
f 30/15/30 21/3/21 22/1/22
f 22/1/22 25/13/31 30/15/30
f 25/13/31 22/1/22 24/2/24
f 26/14/32 21/3/21 29/12/29
f 21/3/21 26/14/32 23/4/23
f 26/14/32 24/2/24 23/4/23
f 24/2/24 26/14/32 25/13/31
f 32/12/34 17/6/17 31/15/33
f 17/6/17 32/12/34 19/3/19
f 17/6/17 30/16/35 31/15/33
f 30/16/35 17/6/17 18/5/18
f 18/5/18 29/14/36 30/16/35
f 29/14/36 18/5/18 20/4/20
f 32/12/34 20/4/20 19/3/19
f 20/4/20 32/12/34 29/14/36
f 6/4/6 28/12/38 32/14/37
f 28/12/38 6/4/6 8/3/8
f 27/11/40 5/5/5 31/16/39
f 5/5/5 27/11/40 7/6/7
f 31/16/39 6/4/6 32/14/37
f 6/4/6 31/16/39 5/5/5
f 27/11/40 8/3/8 7/6/7
f 8/3/8 27/11/40 28/12/38
f 32/17/41 16/10/16 15/9/15
f 16/10/16 32/17/41 28/18/42
f 13/7/13 26/20/44 29/19/43
f 26/20/44 13/7/13 14/8/14
f 32/17/41 13/7/13 29/19/43
f 13/7/13 32/17/41 15/9/15
f 14/8/14 28/18/42 26/20/44
f 28/18/42 14/8/14 16/10/16
f 25/19/46 10/8/10 30/20/45
f 10/8/10 25/19/46 9/7/9
f 27/17/47 12/10/12 11/9/11
f 12/10/12 27/17/47 31/18/48
f 10/8/10 31/18/48 30/20/45
f 31/18/48 10/8/10 12/10/12
f 27/17/47 9/7/9 25/19/46
f 9/7/9 27/17/47 11/9/11

