# Created by Kenney (www.kenney.nl)

mtllib spike.mtl

g mergedBlocks

v 0.5 -1.907349E-06 -0.5000001
v 0.5 1.000002 -0.4999999
v -0.5 -1.907349E-06 -0.5000001
v -0.5 1.000002 -0.4999999
v 0.05 0.5500001 0.5000039
v 0.05 0.4499997 0.5000039
v -0.05 0.5500001 0.5000039
v -0.05 0.4499997 0.5000039
v -0.5 1.000002 -0.2999991
v -0.5 -1.907349E-06 -0.2999993
v 0.5 -1.907349E-06 -0.2999993
v 0.5 1.000002 -0.2999991

vn 0 1.192097E-07 -1.000004
vn 0 -1.192097E-07 1.000004
vn -1 0 0
vn 0 -1.000004 -1.192097E-07
vn 1 0 0
vn 0 1.000004 1.192097E-07
vn 0.8715755 -5.844391E-08 0.4902631
vn 0 -0.8715791 0.490263
vn 0 0.8715789 0.4902632
vn -0.8715755 -5.844391E-08 0.4902631

vt -0.5 -1.907349E-06
vt -0.5 1.000002
vt 0.5 -1.907349E-06
vt 0.5 1.000002
vt 0.05 0.5500001
vt 0.05 0.4499997
vt -0.05 0.5500001
vt -0.05 0.4499997
vt -0.4999999 1.000002
vt -0.2999991 1.000002
vt -0.5000001 -1.907349E-06
vt -0.2999993 -1.931191E-06
vt -0.5 0.5000001
vt 0.5 0.5000001
vt -0.5 0.2999993
vt 0.5 0.2999993
vt 0.4999999 1.000002
vt 0.5000001 -1.907349E-06
vt 0.2999991 1.000002
vt 0.2999993 -1.931191E-06
vt 0.5 -0.4999999
vt -0.5 -0.4999999
vt 0.5 -0.2999991
vt -0.5 -0.2999991
vt -0.5000039 0.5500001
vt -0.5000039 0.4499997
vt -0.05 -0.5000039
vt 0.05 -0.5000039
vt 0.05 0.5000039
vt -0.05 0.5000039
vt 0.5000039 0.5500001
vt 0.5000039 0.4499997

usemtl glass(Clone)

f 3/3/1 2/2/1 1/1/1
f 2/2/1 3/3/1 4/4/1
f 7/7/2 6/6/2 5/5/2
f 6/6/2 7/7/2 8/8/2
f 3/11/3 9/10/3 4/9/3
f 9/10/3 3/11/3 10/12/3
f 11/15/4 3/14/4 1/13/4
f 3/14/4 11/15/4 10/16/4
f 12/19/5 1/18/5 2/17/5
f 1/18/5 12/19/5 11/20/5
f 9/23/6 2/22/6 4/21/6
f 2/22/6 9/23/6 12/24/6
f 5/25/7 11/20/7 12/19/7
f 11/20/7 5/25/7 6/26/7
f 6/27/8 10/16/8 11/15/8
f 10/16/8 6/27/8 8/28/8
f 7/29/9 12/24/9 9/23/9
f 12/24/9 7/29/9 5/30/9
f 10/12/10 7/31/10 9/10/10
f 7/31/10 10/12/10 8/32/10

