# Created by Kenney (www.kenney.nl)

mtllib spike.mtl

g mergedBlocks

v 0.02499999 -6.928656E-18 0.425
v 0.02499999 -6.928656E-18 -0.02499998
v -0.425 -6.928656E-18 0.425
v -0.425 -6.928656E-18 -0.02499998
v -0.1775 1.2285 0.1775
v -0.1775 1.2285 0.2225
v -0.2225 1.2285 0.1775
v -0.2225 1.2285 0.2225
v -0.425 0.2457 -0.02499998
v -0.425 0.2457 0.425
v 0.02499999 0.2457 0.425
v 0.02499999 0.2457 -0.02499998
v 0.02499999 -6.928656E-18 0.02500001
v 0.02499999 -6.928656E-18 -0.425
v -0.425 -6.928656E-18 0.02500001
v -0.425 -6.928656E-18 -0.425
v -0.1775 1.2285 -0.2225
v -0.1775 1.2285 -0.1775
v -0.2225 1.2285 -0.2225
v -0.2225 1.2285 -0.1775
v -0.425 0.2457 -0.425
v -0.425 0.2457 0.02500001
v 0.02499999 0.2457 0.02500001
v 0.02499999 0.2457 -0.425
v 0.425 -6.928656E-18 0.425
v 0.425 -6.928656E-18 -0.02499998
v -0.02500002 -6.928656E-18 0.425
v -0.02500002 -6.928656E-18 -0.02499998
v 0.2225 1.2285 0.1775
v 0.2225 1.2285 0.2225
v 0.1775 1.2285 0.1775
v 0.1775 1.2285 0.2225
v -0.02500002 0.2457 -0.02499998
v -0.02500002 0.2457 0.425
v 0.425 0.2457 0.425
v 0.425 0.2457 -0.02499998
v 0.425 -6.928656E-18 0.02500001
v 0.425 -6.928656E-18 -0.425
v -0.02500001 -6.928656E-18 0.02500001
v -0.02500001 -6.928656E-18 -0.425
v 0.2225 1.2285 -0.2225
v 0.2225 1.2285 -0.1775
v 0.1775 1.2285 -0.2225
v 0.1775 1.2285 -0.1775
v -0.02500001 0.2457 -0.425
v -0.02500001 0.2457 0.02500001
v 0.425 0.2457 0.02500001
v 0.425 0.2457 -0.425

vn 0 -1 0
vn 0 1 0
vn -1 0 0
vn 0 0 1
vn 1 0 0
vn 0 0 -1
vn 0.9794257 0.2018048 0
vn 0 0.2018048 0.9794257
vn 0 0.2018048 -0.9794257
vn -0.9794257 0.2018048 0

vt -0.425 -0.02500001
vt -0.425 0.425
vt 0.02500001 -0.02500001
vt 0.02500001 0.425
vt -0.2225 -0.2225
vt -0.2225 -0.1775
vt -0.1775 -0.2225
vt -0.1775 -0.1775
vt -0.425 -6.928656E-18
vt -0.425 0.2457
vt 0.02500001 -6.928656E-18
vt 0.02500001 0.2457
vt 0.425 -6.928656E-18
vt -0.02500001 -6.928656E-18
vt 0.425 0.2457
vt -0.02500001 0.2457
vt 0.2225 1.2285
vt 0.1775 1.2285
vt -0.1775 1.2285
vt -0.2225 1.2285

usemtl stone(Clone)

f 3/3/1 2/2/1 1/1/1
f 2/2/1 3/3/1 4/4/1
f 7/7/2 6/6/2 5/5/2
f 6/6/2 7/7/2 8/8/2
f 3/11/3 9/10/3 4/9/3
f 9/10/3 3/11/3 10/12/3
f 11/15/4 3/14/4 1/13/4
f 3/14/4 11/15/4 10/16/4
f 12/15/5 1/14/5 2/13/5
f 1/14/5 12/15/5 11/16/5
f 9/12/6 2/9/6 4/11/6
f 2/9/6 9/12/6 12/10/6
f 5/17/7 11/16/7 12/15/7
f 11/16/7 5/17/7 6/18/7
f 6/17/8 10/16/8 11/15/8
f 10/16/8 6/17/8 8/18/8
f 7/19/9 12/10/9 9/12/9
f 12/10/9 7/19/9 5/20/9
f 10/12/10 7/20/10 9/10/10
f 7/20/10 10/12/10 8/19/10
f 15/3/1 14/2/1 13/1/1
f 14/2/1 15/3/1 16/4/1
f 19/7/2 18/6/2 17/5/2
f 18/6/2 19/7/2 20/8/2
f 15/11/3 21/10/3 16/9/3
f 21/10/3 15/11/3 22/12/3
f 23/15/4 15/14/4 13/13/4
f 15/14/4 23/15/4 22/16/4
f 24/15/5 13/14/5 14/13/5
f 13/14/5 24/15/5 23/16/5
f 21/12/6 14/9/6 16/11/6
f 14/9/6 21/12/6 24/10/6
f 17/17/7 23/16/7 24/15/7
f 23/16/7 17/17/7 18/18/7
f 18/17/8 22/16/8 23/15/8
f 22/16/8 18/17/8 20/18/8
f 19/19/9 24/10/9 21/12/9
f 24/10/9 19/19/9 17/20/9
f 22/12/10 19/20/10 21/10/10
f 19/20/10 22/12/10 20/19/10
f 27/3/1 26/2/1 25/1/1
f 26/2/1 27/3/1 28/4/1
f 31/7/2 30/6/2 29/5/2
f 30/6/2 31/7/2 32/8/2
f 27/11/3 33/10/3 28/9/3
f 33/10/3 27/11/3 34/12/3
f 35/15/4 27/14/4 25/13/4
f 27/14/4 35/15/4 34/16/4
f 36/15/5 25/14/5 26/13/5
f 25/14/5 36/15/5 35/16/5
f 33/12/6 26/9/6 28/11/6
f 26/9/6 33/12/6 36/10/6
f 29/17/7 35/16/7 36/15/7
f 35/16/7 29/17/7 30/18/7
f 30/17/8 34/16/8 35/15/8
f 34/16/8 30/17/8 32/18/8
f 31/19/9 36/10/9 33/12/9
f 36/10/9 31/19/9 29/20/9
f 34/12/10 31/20/10 33/10/10
f 31/20/10 34/12/10 32/19/10
f 39/3/1 38/2/1 37/1/1
f 38/2/1 39/3/1 40/4/1
f 43/7/2 42/6/2 41/5/2
f 42/6/2 43/7/2 44/8/2
f 39/11/3 45/10/3 40/9/3
f 45/10/3 39/11/3 46/12/3
f 47/15/4 39/14/4 37/13/4
f 39/14/4 47/15/4 46/16/4
f 48/15/5 37/14/5 38/13/5
f 37/14/5 48/15/5 47/16/5
f 45/12/6 38/9/6 40/11/6
f 38/9/6 45/12/6 48/10/6
f 41/17/7 47/16/7 48/15/7
f 47/16/7 41/17/7 42/18/7
f 42/17/8 46/16/8 47/15/8
f 46/16/8 42/17/8 44/18/8
f 43/19/9 48/10/9 45/12/9
f 48/10/9 43/19/9 41/20/9
f 46/12/10 43/20/10 45/10/10
f 43/20/10 46/12/10 44/19/10

